<svg xmlns="http://www.w3.org/2000/svg" viewBox="0 0 100 100" width="100%" height="100%">
  <!-- Background Canvas (Border Token) -->
  <circle cx="50" cy="50" r="50" fill="#E5DDD9" />
  
  <!-- Torso/Apparel (Text Primary Token) -->
  <path d="M 22 88 C 25 75, 35 72, 50 72 C 65 72, 75 75, 78 88 A 50 50 0 0 1 22 88 Z" fill="#1D1D19" />
  
  <!-- Restrained Accent V-Neck (Accent Token) -->
  <path d="M 42 72 L 50 81 L 58 72 Z" fill="#D97757" />
  
  <!-- Neck (Surface Token) -->
  <path d="M 44 60 H 56 V 72 H 44 Z" fill="#FFFFFF" />
  
  <!-- Face/Head Structure (Surface Token) -->
  <rect x="35" y="28" width="30" height="34" rx="15" fill="#FFFFFF" />
  
  <!-- Clean Editorial Bob Haircut (Text Primary Token) -->
  <path d="M 32 34 C 32 15, 68 15, 68 34 C 68 48, 65 52, 65 54 H 61 C 61 40, 58 32, 50 32 C 42 32, 39 40, 39 54 H 35 C 35 52, 32 48, 32 34 Z" fill="#1D1D19" />
  
  <!-- Intellectual Editorial Glasses (Text Primary Token) -->
  <circle cx="43" cy="43" r="5" fill="none" stroke="#1D1D19" stroke-width="2" />
  <circle cx="57" cy="43" r="5" fill="none" stroke="#1D1D19" stroke-width="2" />
  <line x1="48" y1="43" x2="52" y2="43" stroke="#1D1D19" stroke-width="2" />
</svg>
