<?xml version="1.0" encoding="UTF-8"?>
<svg xmlns="http://www.w3.org/2000/svg" width="1420" height="930" viewBox="0 0 1420 930">
  <defs>
    <marker id="arrow" markerWidth="12" markerHeight="12" refX="10" refY="6" orient="auto" markerUnits="strokeWidth">
      <path d="M2,2 L10,6 L2,10 Z" fill="#111827"/>
    </marker>
    <filter id="shadow" x="-10%" y="-10%" width="120%" height="120%">
      <feDropShadow dx="0" dy="2" stdDeviation="2" flood-color="#9ca3af" flood-opacity="0.25"/>
    </filter>
  </defs>
  <rect width="100%" height="100%" fill="#ffffff"/>
  <text x="710.0" y="30" text-anchor="middle" font-size="20" font-weight="700" font-family="Arial, sans-serif" fill="#111827">DFD Level 0</text>
  <g filter="url(#shadow)">
    
  </g>
  <g>
    <line x1="171.0" y1="255.0" x2="307.7" y2="163.4" stroke="#0f172a" stroke-width="1.9" marker-end="url(#arrow)"/><line x1="307.7" y1="163.4" x2="171.0" y2="255.0" stroke="#0f172a" stroke-width="1.9" marker-end="url(#arrow)"/><line x1="190.0" y1="303.8" x2="286.8" y2="318.3" stroke="#0f172a" stroke-width="1.9" marker-end="url(#arrow)"/><line x1="286.8" y1="318.3" x2="190.0" y2="303.8" stroke="#0f172a" stroke-width="1.9" marker-end="url(#arrow)"/><line x1="190.0" y1="296.4" x2="560.2" y2="315.5" stroke="#0f172a" stroke-width="1.9" marker-end="url(#arrow)"/><line x1="169.3" y1="650.0" x2="585.8" y2="362.6" stroke="#0f172a" stroke-width="1.9" marker-end="url(#arrow)"/><line x1="560.2" y1="315.5" x2="190.0" y2="296.4" stroke="#0f172a" stroke-width="1.9" marker-end="url(#arrow)"/><line x1="585.8" y1="362.6" x2="169.3" y2="650.0" stroke="#0f172a" stroke-width="1.9" marker-end="url(#arrow)"/><line x1="190.0" y1="310.8" x2="844.7" y2="470.4" stroke="#0f172a" stroke-width="1.9" marker-end="url(#arrow)"/><line x1="190.0" y1="669.2" x2="844.7" y2="509.6" stroke="#0f172a" stroke-width="1.9" marker-end="url(#arrow)"/><line x1="445.0" y1="123.7" x2="1170.0" y2="111.5" stroke="#0f172a" stroke-width="1.9" marker-end="url(#arrow)"/><rect x="762.0" y="80.6" width="91" height="24" rx="4" fill="#ffffff" stroke="#cbd5e1" stroke-width="1"/><text x="807.488119696883" y="93.58399799390699" text-anchor="middle" font-size="13" font-family="Arial, sans-serif" fill="#1f2937">member data</text><line x1="444.7" y1="325.5" x2="1170.0" y2="285.0" stroke="#0f172a" stroke-width="1.9" marker-end="url(#arrow)"/><rect x="768.9" y="266.3" width="77" height="24" rx="4" fill="#ffffff" stroke="#cbd5e1" stroke-width="1"/><text x="807.3685882375505" y="279.2866710481816" text-anchor="middle" font-size="13" font-family="Arial, sans-serif" fill="#1f2937">book data</text><line x1="443.5" y1="340.5" x2="1170.0" y2="437.9" stroke="#0f172a" stroke-width="1.9" marker-end="url(#arrow)"/><rect x="764.8" y="402.2" width="84" height="24" rx="4" fill="#ffffff" stroke="#cbd5e1" stroke-width="1"/><text x="806.7603547978783" y="415.23043863211774" text-anchor="middle" font-size="13" font-family="Arial, sans-serif" fill="#1f2937">listing tx</text><line x1="725.8" y1="293.2" x2="1172.5" y2="140.0" stroke="#0f172a" stroke-width="1.9" marker-end="url(#arrow)"/><rect x="903.6" y="169.6" width="91" height="24" rx="4" fill="#ffffff" stroke="#cbd5e1" stroke-width="1"/><text x="949.1311896062464" y="182.58359213500125" text-anchor="middle" font-size="13" font-family="Arial, sans-serif" fill="#1f2937">role/member</text><line x1="731.1" y1="337.7" x2="1170.0" y2="430.9" stroke="#0f172a" stroke-width="1.9" marker-end="url(#arrow)"/><rect x="901.5" y="345.3" width="98" height="24" rx="4" fill="#ffffff" stroke="#cbd5e1" stroke-width="1"/><text x="950.5437577177463" y="358.3194914339707" text-anchor="middle" font-size="13" font-family="Arial, sans-serif" fill="#1f2937">participants</text><line x1="717.1" y1="356.4" x2="1202.6" y2="610.0" stroke="#0f172a" stroke-width="1.9" marker-end="url(#arrow)"/><rect x="924.8" y="504.2" width="70" height="24" rx="4" fill="#ffffff" stroke="#cbd5e1" stroke-width="1"/><text x="959.8392002514217" y="517.1812964578857" text-anchor="middle" font-size="13" font-family="Arial, sans-serif" fill="#1f2937">messages</text><line x1="969.9" y1="439.1" x2="1233.6" y2="140.0" stroke="#0f172a" stroke-width="1.9" marker-end="url(#arrow)"/><rect x="1073.7" y="236.5" width="56" height="24" rx="4" fill="#ffffff" stroke="#cbd5e1" stroke-width="1"/><text x="1101.730935610094" y="249.5290879646692" text-anchor="middle" font-size="13" font-family="Arial, sans-serif" fill="#1f2937">points</text><line x1="988.6" y1="450.2" x2="1212.1" y2="310.0" stroke="#0f172a" stroke-width="1.9" marker-end="url(#arrow)"/><rect x="1061.8" y="335.1" width="77" height="24" rx="4" fill="#ffffff" stroke="#cbd5e1" stroke-width="1"/><text x="1100.3494052921847" y="348.0794772795259" text-anchor="middle" font-size="13" font-family="Arial, sans-serif" fill="#1f2937">available</text><line x1="1008.8" y1="480.0" x2="1170.0" y2="460.7" stroke="#0f172a" stroke-width="1.9" marker-end="url(#arrow)"/><rect x="1041.4" y="447.4" width="112" height="24" rx="4" fill="#ffffff" stroke="#cbd5e1" stroke-width="1"/><text x="1097.404715194945" y="460.3695862453797" text-anchor="middle" font-size="13" font-family="Arial, sans-serif" fill="#1f2937">locked/archive</text><line x1="996.8" y1="522.1" x2="1193.0" y2="610.0" stroke="#0f172a" stroke-width="1.9" marker-end="url(#arrow)"/><rect x="1063.4" y="577.1" width="63" height="24" rx="4" fill="#ffffff" stroke="#cbd5e1" stroke-width="1"/><text x="1094.888659902738" y="590.0695492101812" text-anchor="middle" font-size="13" font-family="Arial, sans-serif" fill="#1f2937">confirm</text><line x1="733.4" y1="704.5" x2="1170.0" y2="651.0" stroke="#0f172a" stroke-width="1.9" marker-end="url(#arrow)"/><rect x="895.7" y="636.8" width="112" height="24" rx="4" fill="#ffffff" stroke="#cbd5e1" stroke-width="1"/><text x="951.6927681847918" y="649.7519059365561" text-anchor="middle" font-size="13" font-family="Arial, sans-serif" fill="#1f2937">message stream</text><line x1="732.9" y1="726.9" x2="1170.0" y2="787.5" stroke="#0f172a" stroke-width="1.9" marker-end="url(#arrow)"/><rect x="913.0" y="762.2" width="77" height="24" rx="4" fill="#ffffff" stroke="#cbd5e1" stroke-width="1"/><text x="951.4711980862138" y="775.1837581017603" text-anchor="middle" font-size="13" font-family="Arial, sans-serif" fill="#1f2937">last read</text><line x1="593.2" y1="671.9" x2="162.3" y2="330.0" stroke="#0f172a" stroke-width="1.9" marker-end="url(#arrow)"/><line x1="560.3" y1="710.5" x2="190.0" y2="691.4" stroke="#0f172a" stroke-width="1.9" marker-end="url(#arrow)"/>
  </g>
  <g filter="url(#shadow)">
    <g id="member"><rect x="40" y="255" width="150" height="75" rx="14" fill="#ffffff" stroke="#111827" stroke-width="2"/><text x="115.0" y="297.8333333333333" text-anchor="middle" font-size="16" font-weight="700" font-family="Arial, sans-serif" fill="#111827">Thành viên</text></g><g id="courier"><rect x="40" y="650" width="150" height="75" rx="14" fill="#ffffff" stroke="#111827" stroke-width="2"/><text x="115.0" y="692.8333333333334" text-anchor="middle" font-size="16" font-weight="700" font-family="Arial, sans-serif" fill="#111827">Courier</text></g><g id="p1"><ellipse cx="365.0" cy="125.0" rx="80.0" ry="55.0" fill="#dbeafe" stroke="#111827" stroke-width="2"/><text x="365.0" y="110.33333333333333" text-anchor="middle" font-size="16" font-weight="600" font-family="Arial, sans-serif" fill="#111827">1.0</text><text x="365.0" y="130.33333333333331" text-anchor="middle" font-size="16" font-weight="400" font-family="Arial, sans-serif" fill="#111827">Tài khoản</text><text x="365.0" y="150.33333333333331" text-anchor="middle" font-size="16" font-weight="400" font-family="Arial, sans-serif" fill="#111827">&amp; hồ sơ</text></g><g id="p2"><ellipse cx="365.0" cy="330.0" rx="80.0" ry="55.0" fill="#dbeafe" stroke="#111827" stroke-width="2"/><text x="365.0" y="315.3333333333333" text-anchor="middle" font-size="16" font-weight="600" font-family="Arial, sans-serif" fill="#111827">2.0</text><text x="365.0" y="335.3333333333333" text-anchor="middle" font-size="16" font-weight="400" font-family="Arial, sans-serif" fill="#111827">Danh mục</text><text x="365.0" y="355.3333333333333" text-anchor="middle" font-size="16" font-weight="400" font-family="Arial, sans-serif" fill="#111827">sách</text></g><g id="p3"><ellipse cx="647.5" cy="320.0" rx="87.5" ry="60.0" fill="#dbeafe" stroke="#111827" stroke-width="2"/><text x="647.5" y="305.3333333333333" text-anchor="middle" font-size="16" font-weight="600" font-family="Arial, sans-serif" fill="#111827">3.0</text><text x="647.5" y="325.3333333333333" text-anchor="middle" font-size="16" font-weight="400" font-family="Arial, sans-serif" fill="#111827">Chatbox</text><text x="647.5" y="345.3333333333333" text-anchor="middle" font-size="16" font-weight="400" font-family="Arial, sans-serif" fill="#111827">&amp; ứng tuyển</text></g><g id="p4"><ellipse cx="925.0" cy="490.0" rx="85.0" ry="60.0" fill="#dbeafe" stroke="#111827" stroke-width="2"/><text x="925.0" y="475.3333333333333" text-anchor="middle" font-size="16" font-weight="600" font-family="Arial, sans-serif" fill="#111827">4.0</text><text x="925.0" y="495.3333333333333" text-anchor="middle" font-size="16" font-weight="400" font-family="Arial, sans-serif" fill="#111827">Xác nhận</text><text x="925.0" y="515.3333333333333" text-anchor="middle" font-size="16" font-weight="400" font-family="Arial, sans-serif" fill="#111827">&amp; điểm</text></g><g id="p5"><ellipse cx="647.5" cy="715.0" rx="87.5" ry="55.0" fill="#dbeafe" stroke="#111827" stroke-width="2"/><text x="647.5" y="700.3333333333334" text-anchor="middle" font-size="16" font-weight="600" font-family="Arial, sans-serif" fill="#111827">5.0</text><text x="647.5" y="720.3333333333334" text-anchor="middle" font-size="16" font-weight="400" font-family="Arial, sans-serif" fill="#111827">Activity</text><text x="647.5" y="740.3333333333334" text-anchor="middle" font-size="16" font-weight="400" font-family="Arial, sans-serif" fill="#111827">&amp; unread</text></g><g id="d1"><rect x="1170" y="80" width="180" height="60" rx="14" fill="#fef3c7" stroke="#111827" stroke-width="2"/><text x="1260.0" y="115.33333333333333" text-anchor="middle" font-size="16" font-weight="600" font-family="Arial, sans-serif" fill="#111827">D1 Member</text></g><g id="d2"><rect x="1170" y="250" width="180" height="60" rx="14" fill="#fef3c7" stroke="#111827" stroke-width="2"/><text x="1260.0" y="285.3333333333333" text-anchor="middle" font-size="16" font-weight="600" font-family="Arial, sans-serif" fill="#111827">D2 Book</text></g><g id="d3"><rect x="1170" y="420" width="180" height="60" rx="14" fill="#fef3c7" stroke="#111827" stroke-width="2"/><text x="1260.0" y="455.3333333333333" text-anchor="middle" font-size="16" font-weight="600" font-family="Arial, sans-serif" fill="#111827">D3 Transaction</text></g><g id="d4"><rect x="1170" y="610" width="180" height="60" rx="14" fill="#fef3c7" stroke="#111827" stroke-width="2"/><text x="1260.0" y="645.3333333333334" text-anchor="middle" font-size="16" font-weight="600" font-family="Arial, sans-serif" fill="#111827">D4 Message</text></g><g id="d5"><rect x="1170" y="770" width="180" height="60" rx="14" fill="#fef3c7" stroke="#111827" stroke-width="2"/><text x="1260.0" y="805.3333333333334" text-anchor="middle" font-size="16" font-weight="600" font-family="Arial, sans-serif" fill="#111827">D5 Activity</text></g>
  </g>
</svg>
