<?xml version="1.0" encoding="UTF-8"?>
<svg xmlns="http://www.w3.org/2000/svg" width="1500" height="900" viewBox="0 0 1500 900">
  <defs>
    <marker id="arrow" markerWidth="12" markerHeight="12" refX="10" refY="6" orient="auto" markerUnits="strokeWidth">
      <path d="M2,2 L10,6 L2,10 Z" fill="#111827"/>
    </marker>
    <filter id="shadow" x="-10%" y="-10%" width="120%" height="120%">
      <feDropShadow dx="0" dy="2" stdDeviation="2" flood-color="#9ca3af" flood-opacity="0.25"/>
    </filter>
  </defs>
  <rect width="100%" height="100%" fill="#ffffff"/>
  <text x="750.0" y="30" text-anchor="middle" font-size="20" font-weight="700" font-family="Arial, sans-serif" fill="#111827">DFD Book Catalog</text>
  <g filter="url(#shadow)">
    
  </g>
  <g>
    <line x1="181.6" y1="245.0" x2="326.4" y2="160.3" stroke="#0f172a" stroke-width="1.9" marker-end="url(#arrow)"/><line x1="190.0" y1="286.6" x2="305.3" y2="293.1" stroke="#0f172a" stroke-width="1.9" marker-end="url(#arrow)"/><line x1="169.8" y1="320.0" x2="332.1" y2="436.4" stroke="#0f172a" stroke-width="1.9" marker-end="url(#arrow)"/><line x1="190.0" y1="266.1" x2="615.7" y2="169.9" stroke="#0f172a" stroke-width="1.9" marker-end="url(#arrow)"/><rect x="308.4" y="177.0" width="105" height="24" rx="4" fill="#ffffff" stroke="#cbd5e1" stroke-width="1"/><text x="360.8541518929317" y="189.98514826768502" text-anchor="middle" font-size="13" font-family="Arial, sans-serif" fill="#1f2937">loan archived</text><line x1="190.0" y1="726.6" x2="610.0" y2="721.2" stroke="#0f172a" stroke-width="1.9" marker-end="url(#arrow)"/><rect x="324.0" y="684.9" width="112" height="24" rx="4" fill="#ffffff" stroke="#cbd5e1" stroke-width="1"/><text x="380.01074729633643" y="697.8780673423546" text-anchor="middle" font-size="13" font-family="Arial, sans-serif" fill="#1f2937">GET /api/books</text><line x1="610.0" y1="721.2" x2="190.0" y2="726.6" stroke="#0f172a" stroke-width="1.9" marker-end="url(#arrow)"/><line x1="460.0" y1="127.3" x2="1180.0" y2="125.3" stroke="#0f172a" stroke-width="1.9" marker-end="url(#arrow)"/><line x1="456.9" y1="140.9" x2="1185.0" y2="271.8" stroke="#0f172a" stroke-width="1.9" marker-end="url(#arrow)"/><line x1="448.8" y1="152.1" x2="1196.7" y2="430.0" stroke="#0f172a" stroke-width="1.9" marker-end="url(#arrow)"/><line x1="438.5" y1="160.4" x2="1221.4" y2="620.0" stroke="#0f172a" stroke-width="1.9" marker-end="url(#arrow)"/><line x1="456.4" y1="283.2" x2="1180.0" y2="142.9" stroke="#0f172a" stroke-width="1.9" marker-end="url(#arrow)"/><line x1="447.9" y1="447.0" x2="1195.7" y2="155.0" stroke="#0f172a" stroke-width="1.9" marker-end="url(#arrow)"/><line x1="460.0" y1="471.4" x2="1180.0" y2="461.4" stroke="#0f172a" stroke-width="1.9" marker-end="url(#arrow)"/><line x1="456.2" y1="487.2" x2="1180.0" y2="631.6" stroke="#0f172a" stroke-width="1.9" marker-end="url(#arrow)"/><line x1="748.3" y1="672.2" x2="1243.8" y2="155.0" stroke="#0f172a" stroke-width="1.9" marker-end="url(#arrow)"/><line x1="774.7" y1="148.6" x2="1180.0" y2="129.4" stroke="#0f172a" stroke-width="1.9" marker-end="url(#arrow)"/><line x1="753.4" y1="184.5" x2="1220.4" y2="430.0" stroke="#0f172a" stroke-width="1.9" marker-end="url(#arrow)"/><line x1="738.5" y1="191.9" x2="1237.5" y2="620.0" stroke="#0f172a" stroke-width="1.9" marker-end="url(#arrow)"/>
  </g>
  <g filter="url(#shadow)">
    <g id="owner"><rect x="45" y="245" width="145" height="75" rx="14" fill="#ffffff" stroke="#111827" stroke-width="2"/><text x="117.5" y="287.8333333333333" text-anchor="middle" font-size="16" font-weight="700" font-family="Arial, sans-serif" fill="#111827">Owner</text></g><g id="member"><rect x="45" y="690" width="145" height="75" rx="14" fill="#ffffff" stroke="#111827" stroke-width="2"/><text x="117.5" y="732.8333333333334" text-anchor="middle" font-size="16" font-weight="700" font-family="Arial, sans-serif" fill="#111827">Thành viên</text></g><g id="p21"><ellipse cx="382.5" cy="127.5" rx="77.5" ry="47.5" fill="#dbeafe" stroke="#111827" stroke-width="2"/><text x="382.5" y="122.83333333333333" text-anchor="middle" font-size="16" font-weight="600" font-family="Arial, sans-serif" fill="#111827">2.1</text><text x="382.5" y="142.83333333333331" text-anchor="middle" font-size="16" font-weight="400" font-family="Arial, sans-serif" fill="#111827">Tạo sách</text></g><g id="p22"><ellipse cx="382.5" cy="297.5" rx="77.5" ry="47.5" fill="#dbeafe" stroke="#111827" stroke-width="2"/><text x="382.5" y="292.8333333333333" text-anchor="middle" font-size="16" font-weight="600" font-family="Arial, sans-serif" fill="#111827">2.2</text><text x="382.5" y="312.8333333333333" text-anchor="middle" font-size="16" font-weight="400" font-family="Arial, sans-serif" fill="#111827">Sửa sách</text></g><g id="p23"><ellipse cx="382.5" cy="472.5" rx="77.5" ry="47.5" fill="#dbeafe" stroke="#111827" stroke-width="2"/><text x="382.5" y="467.8333333333333" text-anchor="middle" font-size="16" font-weight="600" font-family="Arial, sans-serif" fill="#111827">2.3</text><text x="382.5" y="487.8333333333333" text-anchor="middle" font-size="16" font-weight="400" font-family="Arial, sans-serif" fill="#111827">Xóa sách</text></g><g id="p25"><ellipse cx="692.5" cy="152.5" rx="82.5" ry="47.5" fill="#dbeafe" stroke="#111827" stroke-width="2"/><text x="692.5" y="147.83333333333334" text-anchor="middle" font-size="16" font-weight="600" font-family="Arial, sans-serif" fill="#111827">2.5</text><text x="692.5" y="167.83333333333334" text-anchor="middle" font-size="16" font-weight="400" font-family="Arial, sans-serif" fill="#111827">Renew loan</text></g><g id="p24"><ellipse cx="702.5" cy="720.0" rx="92.5" ry="55.0" fill="#dbeafe" stroke="#111827" stroke-width="2"/><text x="702.5" y="705.3333333333334" text-anchor="middle" font-size="16" font-weight="600" font-family="Arial, sans-serif" fill="#111827">2.4</text><text x="702.5" y="725.3333333333334" text-anchor="middle" font-size="16" font-weight="400" font-family="Arial, sans-serif" fill="#111827">Liệt kê,</text><text x="702.5" y="745.3333333333334" text-anchor="middle" font-size="16" font-weight="400" font-family="Arial, sans-serif" fill="#111827">tìm kiếm, lọc</text></g><g id="d2"><rect x="1180" y="95" width="185" height="60" rx="14" fill="#fef3c7" stroke="#111827" stroke-width="2"/><text x="1272.5" y="130.33333333333334" text-anchor="middle" font-size="16" font-weight="600" font-family="Arial, sans-serif" fill="#111827">D2 Book</text></g><g id="pic"><rect x="1185" y="250" width="175" height="75" rx="14" fill="#fef3c7" stroke="#111827" stroke-width="2"/><text x="1272.5" y="282.8333333333333" text-anchor="middle" font-size="16" font-weight="600" font-family="Arial, sans-serif" fill="#111827">pic/</text><text x="1272.5" y="302.8333333333333" text-anchor="middle" font-size="16" font-weight="400" font-family="Arial, sans-serif" fill="#111827">ảnh sách</text></g><g id="d3"><rect x="1180" y="430" width="195" height="60" rx="14" fill="#fef3c7" stroke="#111827" stroke-width="2"/><text x="1277.5" y="465.3333333333333" text-anchor="middle" font-size="16" font-weight="600" font-family="Arial, sans-serif" fill="#111827">D3 Transaction</text></g><g id="d4"><rect x="1180" y="620" width="185" height="60" rx="14" fill="#fef3c7" stroke="#111827" stroke-width="2"/><text x="1272.5" y="655.3333333333334" text-anchor="middle" font-size="16" font-weight="600" font-family="Arial, sans-serif" fill="#111827">D4 Message</text></g>
  </g>
</svg>
